<?xml version="1.0" encoding="UTF-8"?>
<svg viewBox="0 0 167.5 25.688" xmlns="http://www.w3.org/2000/svg">
<metadata>
<x:xmpmeta x:xmptk="Adobe XMP Core 5.6-c138 79.159824, 2016/09/14-01:09:01        " xmlns:x="adobe:ns:meta/">
<rdf:RDF xmlns:rdf="http://www.w3.org/1999/02/22-rdf-syntax-ns#">
<rdf:Description rdf:about=""/>
</rdf:RDF>
</x:xmpmeta>
</metadata>
<defs>
<style>.cls-1 {
        fill: #fff;
        fill-rule: evenodd;
      }</style>
</defs>
<path class="cls-1" transform="translate(-40 -35.344)" d="M47,43.016v18h5v-18h7v-4H40v4h7Zm63,5.394L98,39.016H97.5v22h5V49.252l7,5.657h1l7-5.657V61.016h5v-22H122Zm35.6,6.106H139V61.03l-5-.014v-22h11.6A7.751,7.751,0,1,1,145.6,54.515Zm-6.6-11.5h0v7.5h5.6a3.751,3.751,0,1,0,0-7.5H139Zm28.5-4h-5v22H178v-4H167.5v-18Zm39.5,22h0.5V35.352l-5,1.221V51.015l-15.5-12h-0.5v22h5v-12ZM82.783,53.249l6.036,7.767H82.446l-6.946-9v-0.5a11.024,11.024,0,0,0,5.022-2.148A3.5,3.5,0,0,0,78.5,43.016h-6v18h-5v-22h12A7.494,7.494,0,0,1,82.783,53.249Z" data-name="Shape 2 copy 5"/>
</svg>
