<?xml version="1.0" encoding="UTF-8"?>
<svg viewBox="0 0 108 112" xmlns="http://www.w3.org/2000/svg">
<metadata>
<x:xmpmeta x:xmptk="Adobe XMP Core 5.6-c138 79.159824, 2016/09/14-01:09:01        " xmlns:x="adobe:ns:meta/">
<rdf:RDF xmlns:rdf="http://www.w3.org/1999/02/22-rdf-syntax-ns#">
<rdf:Description rdf:about=""/>
</rdf:RDF>
</x:xmpmeta>
</metadata>
<defs>
<style>.cls-1, .cls-2 {
        fill: none;
        stroke: #fff;
        fill-rule: evenodd;
      }
      .cls-1 {
        stroke-width: 2px;
      }
      .cls-2 {
        stroke-width: 1px;
        opacity: 0.3;
      }</style>
</defs>
<path class="cls-1" transform="translate(-524 -986)" d="m525 1015v-8c0-11.046 22.624-20 53-20s53 8.954 53 20v18c0 11.05-22.624 20-53 20s-53-8.95-53-20v-10z" data-name="Ellipse 5 copy 4"/>
<path class="cls-1" transform="translate(-524 -986)" d="m628.67 1030a9.536 9.536 0 0 1 2.334 6v15c0 11.05-22.624 20-53 20s-53-8.95-53-20v-15a9.541 9.541 0 0 1 2.334 -6" data-name="Ellipse 5 copy 5"/>
<path class="cls-1" transform="translate(-524 -986)" d="m628.67 1056a9.536 9.536 0 0 1 2.334 6v15c0 11.05-22.624 20-53 20s-53-8.95-53-20v-15a9.541 9.541 0 0 1 2.334 -6" data-name="Ellipse 5 copy 6"/>
<path class="cls-2" transform="translate(-524 -986)" d="m629.98 1006c-4.716 9.13-25.375 16-51.983 16s-47.267-6.87-51.982-16" data-name="Ellipse 4 copy 11"/>
<path class="cls-2" transform="translate(-524 -986)" d="m629.98 1033c-4.716 9.13-25.375 16-51.983 16s-47.267-6.87-51.982-16" data-name="Ellipse 4 copy 10"/>
<path class="cls-2" transform="translate(-524 -986)" d="m629.98 1059c-4.716 9.13-25.375 16-51.983 16s-47.267-6.87-51.982-16" data-name="Ellipse 4 copy 12"/>
<path class="cls-1" transform="translate(-524 -986)" d="m611.86 1024c1.366 0 2.312 1.34 2.111 3a3.221 3.221 0 0 1 -2.837 3c-1.367 0-2.312-1.34-2.111-3a3.219 3.219 0 0 1 2.837 -3zm0 26c1.366 0 2.312 1.34 2.111 3a3.221 3.221 0 0 1 -2.837 3c-1.367 0-2.312-1.34-2.111-3a3.219 3.219 0 0 1 2.837 -3zm0 26c1.366 0 2.312 1.34 2.111 3a3.221 3.221 0 0 1 -2.837 3c-1.367 0-2.312-1.34-2.111-3a3.219 3.219 0 0 1 2.837 -3z" data-name="  copy"/>
</svg>
