<?xml version="1.0" encoding="UTF-8"?>
<svg viewBox="0 0 132 88" xmlns="http://www.w3.org/2000/svg">
<metadata>
<x:xmpmeta x:xmptk="Adobe XMP Core 5.6-c138 79.159824, 2016/09/14-01:09:01        " xmlns:x="adobe:ns:meta/">
<rdf:RDF xmlns:rdf="http://www.w3.org/1999/02/22-rdf-syntax-ns#">
<rdf:Description rdf:about=""/>
</rdf:RDF>
</x:xmpmeta>
</metadata>
<defs>
<style>.cls-1, .cls-2, .cls-3 {
        fill: none;
        stroke: #fff;
      }
      .cls-1, .cls-2 {
        stroke-width: 2px;
      }
      .cls-1 {
        fill-rule: evenodd;
      }
      .cls-3 {
        stroke-width: 1px;
        opacity: 0.3;
      }</style>
</defs>
<path class="cls-1" transform="translate(-331 -60)" d="M384,135H336a4,4,0,0,1-4-4V65a4,4,0,0,1,4-4H448a4,4,0,0,1,4,4v64" data-name="Rounded Rectangle 5"/>
<path class="cls-1" transform="translate(-331 -60)" d="m352 147a4 4 0 0 1 4 -4h29" data-name="Rounded Rectangle 8"/>
<rect class="cls-2" x="53" y="69" width="78" height="18" rx="4" ry="4" data-name="Ellipse 3 copy 3"/>
<circle class="cls-2" cx="63" cy="78" r="4"/>
<circle class="cls-3" cx="61" cy="38" r="23" data-name="Ellipse 3 copy 4"/>
<circle class="cls-3" cx="61.015" cy="38" r="17.016" data-name="Ellipse 3 copy 2"/>
<circle class="cls-3" cx="61" cy="38" r="11"/>
<circle class="cls-3" cx="61.015" cy="38" r="5.016" data-name="Ellipse 3 copy"/>
<path class="cls-1" transform="translate(-331 -60)" d="m392.01 80.988a17 17 0 0 1 17 17" data-name="Ellipse 3 copy 5"/>
<path class="cls-1" transform="translate(-331 -60)" d="m392.01 74.989a23 23 0 0 1 23 23" data-name="Ellipse 3 copy 5"/>
<path class="cls-1" transform="translate(-331 -60)" d="m392.01 86.988a11 11 0 0 1 11 11" data-name="Ellipse 3 copy 5"/>
<path class="cls-1" transform="translate(-331 -60)" d="m392.01 92.989a5 5 0 0 1 5 5" data-name="Ellipse 3 copy 5"/>
</svg>
