<?xml version="1.0" encoding="UTF-8"?>
<svg data-name="btn vk" viewBox="0 0 40 40" xmlns="http://www.w3.org/2000/svg">
<metadata>
<x:xmpmeta x:xmptk="Adobe XMP Core 5.6-c138 79.159824, 2016/09/14-01:09:01        " xmlns:x="adobe:ns:meta/">
<rdf:RDF xmlns:rdf="http://www.w3.org/1999/02/22-rdf-syntax-ns#">
<rdf:Description rdf:about=""/>
</rdf:RDF>
</x:xmpmeta>
</metadata>
<defs>
<style>.cls-1 {
        fill: #fdd60f;
      }
      .cls-1, .cls-2 {
        fill-rule: evenodd;
      }
      .cls-2 {
        fill: #fff;
      }</style>
</defs>
<path class="cls-1" transform="translate(-373 -312)" d="m393 352a20 20 0 1 1 20 -20 20 20 0 0 1 -20 20zm0-38a18 18 0 1 0 18 18 17.994 17.994 0 0 0 -18 -17.995z" data-name="Rectangle 2 copy 16"/>
<path class="cls-2" transform="translate(-373 -312)" d="M392.05,337.92h1.25a1.08,1.08,0,0,0,.571-0.24,0.862,0.862,0,0,0,.171-0.53s-0.024-1.617.754-1.856,1.754,1.564,2.8,2.255a2.042,2.042,0,0,0,1.391.409l2.793-.038s1.461-.087.768-1.195a9.06,9.06,0,0,0-2.077-2.317c-1.751-1.567-1.517-1.314.593-4.025,1.285-1.651,1.8-2.659,1.638-3.091a1.252,1.252,0,0,0-1.1-.3l-3.145.019a0.734,0.734,0,0,0-.406.069,0.852,0.852,0,0,0-.277.325,17.29,17.29,0,0,1-1.162,2.365c-1.4,2.293-1.961,2.414-2.19,2.272-0.532-.332-0.4-1.333-0.4-2.045,0-2.222.349-3.148-.681-3.388a5.564,5.564,0,0,0-1.468-.141,7.027,7.027,0,0,0-2.61.257c-0.357.169-.634,0.546-0.465,0.567a1.437,1.437,0,0,1,.928.45,2.843,2.843,0,0,1,.311,1.373s0.185,2.615-.433,2.94c-0.423.223-1-.232-2.254-2.312a19.116,19.116,0,0,1-1.122-2.244,0.9,0.9,0,0,0-.26-0.338,1.341,1.341,0,0,0-.483-0.188l-2.988.019a1.048,1.048,0,0,0-.614.2,0.612,0.612,0,0,0-.012.514s2.34,5.278,4.99,7.938a7.322,7.322,0,0,0,5.188,2.279h0Z"/>
</svg>
