<?xml version="1.0" encoding="UTF-8"?>
<svg data-name="vk btn" viewBox="0 0 63 63" xmlns="http://www.w3.org/2000/svg">
<metadata>
<x:xmpmeta x:xmptk="Adobe XMP Core 5.6-c138 79.159824, 2016/09/14-01:09:01        " xmlns:x="adobe:ns:meta/">
<rdf:RDF xmlns:rdf="http://www.w3.org/1999/02/22-rdf-syntax-ns#">
<rdf:Description rdf:about=""/>
</rdf:RDF>
</x:xmpmeta>
</metadata>
<defs>
<style>.cls-1 {
        fill: #fdd60f;
      }
      .cls-2 {
        fill-rule: evenodd;
      }</style>
</defs>
<circle class="cls-1" cx="31.5" cy="31.5" r="31.5" data-name="Rectangle 2 copy 17"/>
<path class="cls-2" transform="translate(-311 -367)" d="M341,407.824h1.969a1.694,1.694,0,0,0,.9-0.379,1.352,1.352,0,0,0,.271-0.834s-0.039-2.547,1.187-2.922c1.21-.37,2.762,2.462,4.407,3.551a3.207,3.207,0,0,0,2.19.643l4.4-.059s2.3-.137,1.21-1.882a14.29,14.29,0,0,0-3.271-3.649c-2.759-2.469-2.389-2.069.934-6.34,2.024-2.6,2.833-4.188,2.58-4.868-0.241-.648-1.729-0.477-1.729-0.477l-4.954.03a1.16,1.16,0,0,0-.64.108,1.345,1.345,0,0,0-.437.513,27.272,27.272,0,0,1-1.829,3.724c-2.206,3.611-3.088,3.8-3.449,3.578-0.839-.523-0.629-2.1-0.629-3.22,0-3.5.551-4.959-1.072-5.337a8.8,8.8,0,0,0-2.312-.222,11.068,11.068,0,0,0-4.111.406c-0.563.266-1,.859-0.733,0.893a2.259,2.259,0,0,1,1.462.708,4.468,4.468,0,0,1,.49,2.162s0.292,4.12-.681,4.631c-0.668.351-1.584-.365-3.551-3.642a30.042,30.042,0,0,1-1.768-3.533,1.41,1.41,0,0,0-.408-0.532,2.1,2.1,0,0,0-.761-0.3l-4.707.03a1.647,1.647,0,0,0-.966.315,0.958,0.958,0,0,0-.019.809s3.685,8.313,7.858,12.5a11.535,11.535,0,0,0,8.172,3.59h0Z" data-name="Shape 5 copy"/>
</svg>
